<svg xmlns="http://www.w3.org/2000/svg" viewBox="0 0 512 512"><path d="M256 24C128.071 24 24 128.075 24 256s104.071 232 232 232 232-104.075 232-232S383.929 24 256 24z" fill="#d8dce1"/><path d="M256 104c-83.816 0-152 68.187-152 152s68.184 152 152 152 152-68.187 152-152-68.184-152-152-152z" fill="#fff"/><path d="M256 71.109a8 8 0 0 1-8-8V48h16v15.109a8 8 0 0 1-8 8zM264 464h-16v-15.11a8 8 0 0 1 16 0V464z" fill="#5c546a"/><path d="M256 248c-4.422 0-8-3.582-8-8v-32c0-4.418 3.578-8 8-8s8 3.582 8 8v32c0 4.418-3.578 8-8 8z" fill="#8b8996"/><path d="M464 264h-15.11a8 8 0 0 1 0-16H464v16zm-400.891 0H48v-16h15.109a8 8 0 1 1 0 16z" fill="#5c546a"/><path d="M84.954 166.484l-13.087-7.555 8-13.859 13.088 7.555a8 8 0 0 1 2.929 10.928l-.001.002a8 8 0 0 1-10.929 2.929zM432.133 366.93l-13.088-7.555a8 8 0 0 1-2.929-10.928l.001-.002a8 8 0 0 1 10.928-2.929l13.087 7.555-7.999 13.859zM348.447 95.884l-.002-.001a8 8 0 0 1-2.929-10.928l7.555-13.087 13.859 8-7.555 13.088a8.002 8.002 0 0 1-10.928 2.928zM158.93 440.133l-13.859-8 7.555-13.088a8 8 0 0 1 10.928-2.929l.002.001a8 8 0 0 1 2.929 10.928l-7.555 13.088zm257.187-276.578l-.001-.002a8 8 0 0 1 2.929-10.928l13.088-7.555 8 13.859-13.087 7.555a8 8 0 0 1-10.929-2.929zM79.867 366.93l-8-13.859 13.087-7.555a8 8 0 0 1 10.928 2.929l.001.002a8 8 0 0 1-2.929 10.928l-13.087 7.555zm72.758-273.975l-7.555-13.088 13.859-8 7.555 13.087a8 8 0 0 1-2.929 10.928l-.002.001a8 8 0 0 1-10.928-2.928zM353.07 440.133l-7.555-13.087a8 8 0 0 1 2.929-10.928l.002-.001a8 8 0 0 1 10.928 2.929l7.555 13.088-13.859 7.999zM304 264h-32c-4.422 0-8-3.582-8-8s3.578-8 8-8h32c4.422 0 8 3.582 8 8s-3.578 8-8 8z" fill="#8b8996"/><path d="M376 272h-56c-8.8 0-16-7.2-16-16s7.2-16 16-16h56c8.8 0 16 7.2 16 16s-7.2 16-16 16zM272 112v80c0 8.8-7.2 16-16 16s-16-7.2-16-16v-80c0-8.8 7.2-16 16-16s16 7.2 16 16z" fill="#ff9600"/><path d="M256 512C114.844 512 0 397.16 0 256S114.844 0 256 0s256 114.84 256 256-114.844 256-256 256zm0-464C141.305 48 48 141.309 48 256s93.305 208 208 208 208-93.309 208-208S370.695 48 256 48z" fill="#ffd200"/><path d="M48 256c0-114.691 93.305-208 208-208V0C114.844 0 0 114.84 0 256s114.844 256 256 256v-48c-114.695 0-208-93.309-208-208z" fill="#ff9600"/><circle cx="256" cy="256" r="24" fill="#5c546a"/></svg>