<svg xmlns="http://www.w3.org/2000/svg" viewBox="0 0 511.691 511.691"><path d="M511.08 60.938A8 8 0 0 0 503.689 56h-48V8a7.996 7.996 0 0 0-4.938-7.391 7.996 7.996 0 0 0-8.719 1.734l-56 56a8 8 0 0 0-2.344 5.656v56c0 4.418 3.578 8 8 8h56a7.994 7.994 0 0 0 5.656-2.344l56-56a7.987 7.987 0 0 0 1.736-8.717z" fill="#00abff"/><path d="M386.032 125.658a7.974 7.974 0 0 0 5.657 2.343h56a7.994 7.994 0 0 0 5.656-2.344l56-56a7.99 7.99 0 0 0 1.734-8.719 7.998 7.998 0 0 0-7.39-4.938h-48l-69.657 69.658z" fill="#4082fd"/><circle cx="223.689" cy="288" r="223.689" fill="#ff4f19"/><circle cx="223.689" cy="288" r="192" fill="#fff"/><circle cx="223.689" cy="288" r="159.689" fill="#ff4f19"/><circle cx="223.689" cy="288" r="128" fill="#fff"/><circle cx="223.689" cy="288" r="96" fill="#ff4f19"/><circle cx="223.689" cy="288" r="64" fill="#fff"/><circle cx="223.689" cy="288" r="32" fill="#ff4f19"/><path d="M223.689 296a7.97 7.97 0 0 1-5.656-2.344 7.996 7.996 0 0 1 0-11.312l152-152a7.996 7.996 0 0 1 11.312 0 7.996 7.996 0 0 1 0 11.312l-152 152a7.97 7.97 0 0 1-5.656 2.344z" fill="#b9bbc1"/><path d="M263.689 264a15.943 15.943 0 0 1-11.312-4.688c-6.25-6.246-6.25-16.379 0-22.625L390.033 99.032c6.25-6.25 16.375-6.25 22.625 0 6.25 6.246 6.25 16.379 0 22.625L275.002 259.313A15.948 15.948 0 0 1 263.689 264z" fill="#5c546a"/></svg>